<svg xmlns="http://www.w3.org/2000/svg" xmlns:xlink="http://www.w3.org/1999/xlink" version="1.1" x="0px" y="0px" width="150" height="150" viewBox="0 0 100 125" enable-background="new 0 0 100 100" xml:space="preserve"><path d="M72.301,56.569c0.074-1.251,0.125-2.53,0.125-3.856c0-23.696-10.593-44.482-22.67-44.482  c-12.076,0-22.668,20.787-22.668,44.482c0,1.446,0.049,2.826,0.124,4.164c-4.042,3.74-18.432,18.809-6.953,34.463l1,1.363  l15.456-8.674h26.325l15.64,8.662l0.997-1.342C91.667,75.219,75.845,59.717,72.301,56.569z M22.396,87.684  c-6.71-10.818,0.745-21.137,5.277-25.935c1.292,9.927,4.466,16.259,6.443,19.356L22.396,87.684z M61.348,80.207H38.129  c-1.707-2.357-7.221-11.234-7.221-27.494c0-20.901,9.159-40.661,18.847-40.661c9.688,0,18.848,19.76,18.848,40.661  C68.604,67.555,63.083,77.461,61.348,80.207z M77.55,87.697l-12.177-6.744c1.909-3.307,5.124-10.063,6.447-19.604  C76.354,65.949,84.573,76.559,77.55,87.697z"/><path d="M50,25.112c-6.028,0-10.933,4.905-10.933,10.934c0,6.028,4.905,10.933,10.933,10.933c6.027,0,10.934-4.905,10.934-10.933  C60.934,30.017,56.027,25.112,50,25.112z M50,43.158c-3.921,0-7.112-3.19-7.112-7.111s3.19-7.113,7.112-7.113  c3.921,0,7.111,3.191,7.111,7.113S53.921,43.158,50,43.158z"/></svg>